<svg xmlns="http://www.w3.org/2000/svg" xmlns:xlink="http://www.w3.org/1999/xlink" contentStyleType="text/css" data-diagram-type="CLASS" height="650px" preserveAspectRatio="none" style="width:1295px;height:650px;background:#FFFFFF;" version="1.1" viewBox="0 0 1295 650" width="1295px" zoomAndPan="magnify"><?plantuml 1.2026.7beta1?><defs/><g><g class="title" data-source-line="1"><text fill="#000000" font-family="sans-serif" font-size="14" font-weight="700" lengthAdjust="spacing" textLength="99.7227" x="594.1414" y="22.9951">ER Database</text></g><!--class SHELTER--><g class="entity" data-qualified-name="SHELTER" data-source-line="3" id="ent0001"><rect fill="#F1F1F1" height="129.4844" rx="2.5" ry="2.5" style="stroke:#181818;stroke-width:0.5;" width="191.1426" x="565.28" y="44.2969"/><ellipse cx="625.009" cy="60.2969" fill="#ADD1B2" rx="11" ry="11" style="stroke:#181818;stroke-width:1;"/><path d="M629.1184,66.2969 L621.3996,66.2969 L621.3996,53.9063 L629.1184,53.9063 L629.1184,56.0625 L623.8528,56.0625 L623.8528,58.7344 L628.6184,58.7344 L628.6184,60.8906 L623.8528,60.8906 L623.8528,64.1406 L629.1184,64.1406 L629.1184,66.2969 Z " fill="#000000"/><text fill="#000000" font-family="sans-serif" font-size="14" lengthAdjust="spacing" textLength="63.1846" x="645.509" y="65.1436">SHELTER</text><line style="stroke:#181818;stroke-width:0.5;" x1="566.28" x2="755.4226" y1="76.2969" y2="76.2969"/><g data-visibility-modifier="IE_MANDATORY"><ellipse cx="576.28" cy="89.9453" fill="#000000" rx="3" ry="3" style="stroke:#000000;stroke-width:1;"/></g><text fill="#000000" font-family="sans-serif" font-size="14" lengthAdjust="spacing" textLength="96.1201" x="585.28" y="93.292">id : uuid &#171;PK&#187;</text><text fill="#000000" font-family="sans-serif" font-size="14" lengthAdjust="spacing" textLength="106.8457" x="585.28" y="109.5889">name : varchar</text><text fill="#000000" font-family="sans-serif" font-size="14" lengthAdjust="spacing" textLength="122.4521" x="585.28" y="125.8857">address : varchar</text><text fill="#000000" font-family="sans-serif" font-size="14" lengthAdjust="spacing" textLength="165.1426" x="585.28" y="142.1826">contact_email : varchar</text><text fill="#000000" font-family="sans-serif" font-size="14" lengthAdjust="spacing" textLength="110.9541" x="585.28" y="158.4795">phone : varchar</text><line style="stroke:#181818;stroke-width:0.5;" x1="566.28" x2="755.4226" y1="165.7813" y2="165.7813"/></g><!--class SPECIES--><g class="entity" data-qualified-name="SPECIES" data-source-line="11" id="ent0002"><rect fill="#F1F1F1" height="113.1875" rx="2.5" ry="2.5" style="stroke:#181818;stroke-width:0.5;" width="202.1074" x="556.79" y="506.1569"/><ellipse cx="624.6879" cy="522.1569" fill="#ADD1B2" rx="11" ry="11" style="stroke:#181818;stroke-width:1;"/><path d="M628.7973,528.1569 L621.0786,528.1569 L621.0786,515.7663 L628.7973,515.7663 L628.7973,517.9225 L623.5317,517.9225 L623.5317,520.5944 L628.2973,520.5944 L628.2973,522.7506 L623.5317,522.7506 L623.5317,526.0006 L628.7973,526.0006 L628.7973,528.1569 Z " fill="#000000"/><text fill="#000000" font-family="sans-serif" font-size="14" lengthAdjust="spacing" textLength="57.8115" x="645.1879" y="527.0036">SPECIES</text><line style="stroke:#181818;stroke-width:0.5;" x1="557.79" x2="757.8974" y1="538.1569" y2="538.1569"/><g data-visibility-modifier="IE_MANDATORY"><ellipse cx="567.79" cy="551.8053" fill="#000000" rx="3" ry="3" style="stroke:#000000;stroke-width:1;"/></g><text fill="#000000" font-family="sans-serif" font-size="14" lengthAdjust="spacing" textLength="96.1201" x="576.79" y="555.152">id : uuid &#171;PK&#187;</text><text fill="#000000" font-family="sans-serif" font-size="14" lengthAdjust="spacing" textLength="174.8223" x="576.79" y="571.4489">common_name : varchar</text><text fill="#000000" font-family="sans-serif" font-size="14" lengthAdjust="spacing" textLength="176.1074" x="576.79" y="587.7457">scientific_name : varchar</text><text fill="#000000" font-family="sans-serif" font-size="14" lengthAdjust="spacing" textLength="107.8984" x="576.79" y="604.0426">breed : varchar</text><line style="stroke:#181818;stroke-width:0.5;" x1="557.79" x2="757.8974" y1="611.3444" y2="611.3444"/></g><!--class PET--><g class="entity" data-qualified-name="PET" data-source-line="18" id="ent0003"><rect fill="#F1F1F1" height="162.0781" rx="2.5" ry="2.5" style="stroke:#181818;stroke-width:0.5;" width="407.7529" x="222.97" y="250.7769"/><ellipse cx="409.6765" cy="266.7769" fill="#ADD1B2" rx="11" ry="11" style="stroke:#181818;stroke-width:1;"/><path d="M413.7859,272.7769 L406.0672,272.7769 L406.0672,260.3863 L413.7859,260.3863 L413.7859,262.5425 L408.5203,262.5425 L408.5203,265.2144 L413.2859,265.2144 L413.2859,267.3706 L408.5203,267.3706 L408.5203,270.6206 L413.7859,270.6206 L413.7859,272.7769 Z " fill="#000000"/><text fill="#000000" font-family="sans-serif" font-size="14" lengthAdjust="spacing" textLength="25.8398" x="430.1765" y="271.6236">PET</text><line style="stroke:#181818;stroke-width:0.5;" x1="223.97" x2="629.7229" y1="282.7769" y2="282.7769"/><g data-visibility-modifier="IE_MANDATORY"><ellipse cx="233.97" cy="296.4253" fill="#000000" rx="3" ry="3" style="stroke:#000000;stroke-width:1;"/></g><text fill="#000000" font-family="sans-serif" font-size="14" lengthAdjust="spacing" textLength="96.1201" x="242.97" y="299.772">id : uuid &#171;PK&#187;</text><text fill="#000000" font-family="sans-serif" font-size="14" lengthAdjust="spacing" textLength="106.8457" x="242.97" y="316.0689">name : varchar</text><text fill="#000000" font-family="sans-serif" font-size="14" lengthAdjust="spacing" textLength="116.6484" x="242.97" y="332.3657">birth_date : date</text><text fill="#000000" font-family="sans-serif" font-size="14" lengthAdjust="spacing" textLength="148.251" x="242.97" y="348.6626">sex : enum {M, F, U}</text><text fill="#000000" font-family="sans-serif" font-size="14" lengthAdjust="spacing" textLength="381.7529" x="242.97" y="364.9595">status : enum {available, adopted, fostered, pending}</text><text fill="#000000" font-family="sans-serif" font-size="14" lengthAdjust="spacing" textLength="151.2588" x="242.97" y="381.2564">shelter_id : uuid &#171;FK&#187;</text><text fill="#000000" font-family="sans-serif" font-size="14" lengthAdjust="spacing" textLength="155.0186" x="242.97" y="397.5532">species_id : uuid &#171;FK&#187;</text><line style="stroke:#181818;stroke-width:0.5;" x1="223.97" x2="629.7229" y1="404.855" y2="404.855"/></g><!--class PERSON--><g class="entity" data-qualified-name="PERSON" data-source-line="28" id="ent0004"><rect fill="#F1F1F1" height="129.4844" rx="2.5" ry="2.5" style="stroke:#181818;stroke-width:0.5;" width="309.4521" x="869.12" y="44.2969"/><ellipse cx="990.8988" cy="60.2969" fill="#ADD1B2" rx="11" ry="11" style="stroke:#181818;stroke-width:1;"/><path d="M995.0082,66.2969 L987.2894,66.2969 L987.2894,53.9063 L995.0082,53.9063 L995.0082,56.0625 L989.7426,56.0625 L989.7426,58.7344 L994.5082,58.7344 L994.5082,60.8906 L989.7426,60.8906 L989.7426,64.1406 L995.0082,64.1406 L995.0082,66.2969 Z " fill="#000000"/><text fill="#000000" font-family="sans-serif" font-size="14" lengthAdjust="spacing" textLength="57.3945" x="1011.3988" y="65.1436">PERSON</text><line style="stroke:#181818;stroke-width:0.5;" x1="870.12" x2="1177.5721" y1="76.2969" y2="76.2969"/><g data-visibility-modifier="IE_MANDATORY"><ellipse cx="880.12" cy="89.9453" fill="#000000" rx="3" ry="3" style="stroke:#000000;stroke-width:1;"/></g><text fill="#000000" font-family="sans-serif" font-size="14" lengthAdjust="spacing" textLength="96.1201" x="889.12" y="93.292">id : uuid &#171;PK&#187;</text><text fill="#000000" font-family="sans-serif" font-size="14" lengthAdjust="spacing" textLength="135.4268" x="889.12" y="109.5889">full_name : varchar</text><text fill="#000000" font-family="sans-serif" font-size="14" lengthAdjust="spacing" textLength="105.752" x="889.12" y="125.8857">email : varchar</text><text fill="#000000" font-family="sans-serif" font-size="14" lengthAdjust="spacing" textLength="110.9541" x="889.12" y="142.1826">phone : varchar</text><text fill="#000000" font-family="sans-serif" font-size="14" lengthAdjust="spacing" textLength="283.4521" x="889.12" y="158.4795">role : enum {applicant, volunteer, staff}</text><line style="stroke:#181818;stroke-width:0.5;" x1="870.12" x2="1177.5721" y1="165.7813" y2="165.7813"/></g><!--class ADOPTION_REQUEST--><g class="entity" data-qualified-name="ADOPTION_REQUEST" data-source-line="36" id="ent0005"><rect fill="#F1F1F1" height="145.7813" rx="2.5" ry="2.5" style="stroke:#181818;stroke-width:0.5;" width="400.3154" x="879.69" y="489.8569"/><ellipse cx="1002.0396" cy="505.8569" fill="#ADD1B2" rx="11" ry="11" style="stroke:#181818;stroke-width:1;"/><path d="M1006.149,511.8569 L998.4302,511.8569 L998.4302,499.4663 L1006.149,499.4663 L1006.149,501.6225 L1000.8834,501.6225 L1000.8834,504.2944 L1005.649,504.2944 L1005.649,506.4506 L1000.8834,506.4506 L1000.8834,509.7006 L1006.149,509.7006 L1006.149,511.8569 Z " fill="#000000"/><text fill="#000000" font-family="sans-serif" font-size="14" lengthAdjust="spacing" textLength="147.1162" x="1022.5396" y="510.7036">ADOPTION_REQUEST</text><line style="stroke:#181818;stroke-width:0.5;" x1="880.69" x2="1279.0054" y1="521.8569" y2="521.8569"/><g data-visibility-modifier="IE_MANDATORY"><ellipse cx="890.69" cy="535.5053" fill="#000000" rx="3" ry="3" style="stroke:#000000;stroke-width:1;"/></g><text fill="#000000" font-family="sans-serif" font-size="14" lengthAdjust="spacing" textLength="96.1201" x="899.69" y="538.852">id : uuid &#171;PK&#187;</text><text fill="#000000" font-family="sans-serif" font-size="14" lengthAdjust="spacing" textLength="170.625" x="899.69" y="555.1489">requester_id : uuid &#171;FK&#187;</text><text fill="#000000" font-family="sans-serif" font-size="14" lengthAdjust="spacing" textLength="125.7197" x="899.69" y="571.4457">pet_id : uuid &#171;FK&#187;</text><text fill="#000000" font-family="sans-serif" font-size="14" lengthAdjust="spacing" textLength="168.9092" x="899.69" y="587.7426">requested_at : datetime</text><text fill="#000000" font-family="sans-serif" font-size="14" lengthAdjust="spacing" textLength="374.3154" x="899.69" y="604.0395">status : enum {draft, submitted, approved, rejected}</text><text fill="#000000" font-family="sans-serif" font-size="14" lengthAdjust="spacing" textLength="104.4121" x="899.69" y="620.3364">message : text</text><line style="stroke:#181818;stroke-width:0.5;" x1="880.69" x2="1279.0054" y1="627.6381" y2="627.6381"/></g><!--class MEDICAL_RECORD--><g class="entity" data-qualified-name="MEDICAL_RECORD" data-source-line="45" id="ent0006"><rect fill="#F1F1F1" height="145.7813" rx="2.5" ry="2.5" style="stroke:#181818;stroke-width:0.5;" width="172.1797" x="124.76" y="489.8569"/><ellipse cx="144.4028" cy="505.8569" fill="#ADD1B2" rx="11" ry="11" style="stroke:#181818;stroke-width:1;"/><path d="M148.5122,511.8569 L140.7934,511.8569 L140.7934,499.4663 L148.5122,499.4663 L148.5122,501.6225 L143.2466,501.6225 L143.2466,504.2944 L148.0122,504.2944 L148.0122,506.4506 L143.2466,506.4506 L143.2466,509.7006 L148.5122,509.7006 L148.5122,511.8569 Z " fill="#000000"/><text fill="#000000" font-family="sans-serif" font-size="14" lengthAdjust="spacing" textLength="129.8623" x="159.4346" y="510.7036">MEDICAL_RECORD</text><line style="stroke:#181818;stroke-width:0.5;" x1="125.76" x2="295.9397" y1="521.8569" y2="521.8569"/><g data-visibility-modifier="IE_MANDATORY"><ellipse cx="135.76" cy="535.5053" fill="#000000" rx="3" ry="3" style="stroke:#000000;stroke-width:1;"/></g><text fill="#000000" font-family="sans-serif" font-size="14" lengthAdjust="spacing" textLength="96.1201" x="144.76" y="538.852">id : uuid &#171;PK&#187;</text><text fill="#000000" font-family="sans-serif" font-size="14" lengthAdjust="spacing" textLength="125.7197" x="144.76" y="555.1489">pet_id : uuid &#171;FK&#187;</text><text fill="#000000" font-family="sans-serif" font-size="14" lengthAdjust="spacing" textLength="129.0283" x="144.76" y="571.4457">record_date : date</text><text fill="#000000" font-family="sans-serif" font-size="14" lengthAdjust="spacing" textLength="119.335" x="144.76" y="587.7426">description : text</text><text fill="#000000" font-family="sans-serif" font-size="14" lengthAdjust="spacing" textLength="146.1797" x="144.76" y="604.0395">vaccinated : boolean</text><text fill="#000000" font-family="sans-serif" font-size="14" lengthAdjust="spacing" textLength="136.2334" x="144.76" y="620.3364">vet_name : varchar</text><line style="stroke:#181818;stroke-width:0.5;" x1="125.76" x2="295.9397" y1="627.6381" y2="627.6381"/></g><!--class PHOTO--><g class="entity" data-qualified-name="PHOTO" data-source-line="54" id="ent0007"><rect fill="#F1F1F1" height="129.4844" rx="2.5" ry="2.5" style="stroke:#181818;stroke-width:0.5;" width="189.0645" x="332.32" y="498.0069"/><ellipse cx="397.822" cy="514.0069" fill="#ADD1B2" rx="11" ry="11" style="stroke:#181818;stroke-width:1;"/><path d="M401.9313,520.0069 L394.2126,520.0069 L394.2126,507.6163 L401.9313,507.6163 L401.9313,509.7725 L396.6657,509.7725 L396.6657,512.4444 L401.4313,512.4444 L401.4313,514.6006 L396.6657,514.6006 L396.6657,517.8506 L401.9313,517.8506 L401.9313,520.0069 Z " fill="#000000"/><text fill="#000000" font-family="sans-serif" font-size="14" lengthAdjust="spacing" textLength="49.5605" x="418.322" y="518.8536">PHOTO</text><line style="stroke:#181818;stroke-width:0.5;" x1="333.32" x2="520.3845" y1="530.0069" y2="530.0069"/><g data-visibility-modifier="IE_MANDATORY"><ellipse cx="343.32" cy="543.6553" fill="#000000" rx="3" ry="3" style="stroke:#000000;stroke-width:1;"/></g><text fill="#000000" font-family="sans-serif" font-size="14" lengthAdjust="spacing" textLength="96.1201" x="352.32" y="547.002">id : uuid &#171;PK&#187;</text><text fill="#000000" font-family="sans-serif" font-size="14" lengthAdjust="spacing" textLength="125.7197" x="352.32" y="563.2989">pet_id : uuid &#171;FK&#187;</text><text fill="#000000" font-family="sans-serif" font-size="14" lengthAdjust="spacing" textLength="85.6611" x="352.32" y="579.5957">url : varchar</text><text fill="#000000" font-family="sans-serif" font-size="14" lengthAdjust="spacing" textLength="119.123" x="352.32" y="595.8926">caption : varchar</text><text fill="#000000" font-family="sans-serif" font-size="14" lengthAdjust="spacing" textLength="163.0645" x="352.32" y="612.1895">uploaded_at : datetime</text><line style="stroke:#181818;stroke-width:0.5;" x1="333.32" x2="520.3845" y1="619.4913" y2="619.4913"/></g><!--class VOLUNTEER_ASSIGNMENT--><g class="entity" data-qualified-name="VOLUNTEER_ASSIGNMENT" data-source-line="62" id="ent0008"><rect fill="#F1F1F1" height="129.4844" rx="2.5" ry="2.5" style="stroke:#181818;stroke-width:0.5;" width="216.8369" x="878.43" y="267.0769"/><ellipse cx="893.43" cy="283.0769" fill="#ADD1B2" rx="11" ry="11" style="stroke:#181818;stroke-width:1;"/><path d="M897.5394,289.0769 L889.8206,289.0769 L889.8206,276.6863 L897.5394,276.6863 L897.5394,278.8425 L892.2738,278.8425 L892.2738,281.5144 L897.0394,281.5144 L897.0394,283.6706 L892.2738,283.6706 L892.2738,286.9206 L897.5394,286.9206 L897.5394,289.0769 Z " fill="#000000"/><text fill="#000000" font-family="sans-serif" font-size="14" lengthAdjust="spacing" textLength="184.8369" x="907.43" y="287.9236">VOLUNTEER_ASSIGNMENT</text><line style="stroke:#181818;stroke-width:0.5;" x1="879.43" x2="1094.2669" y1="299.0769" y2="299.0769"/><g data-visibility-modifier="IE_MANDATORY"><ellipse cx="889.43" cy="312.7253" fill="#000000" rx="3" ry="3" style="stroke:#000000;stroke-width:1;"/></g><text fill="#000000" font-family="sans-serif" font-size="14" lengthAdjust="spacing" textLength="96.1201" x="898.43" y="316.072">id : uuid &#171;PK&#187;</text><text fill="#000000" font-family="sans-serif" font-size="14" lengthAdjust="spacing" textLength="169.6885" x="898.43" y="332.3689">volunteer_id : uuid &#171;FK&#187;</text><text fill="#000000" font-family="sans-serif" font-size="14" lengthAdjust="spacing" textLength="151.2588" x="898.43" y="348.6657">shelter_id : uuid &#171;FK&#187;</text><text fill="#000000" font-family="sans-serif" font-size="14" lengthAdjust="spacing" textLength="116.3613" x="898.43" y="364.9626">start_date : date</text><text fill="#000000" font-family="sans-serif" font-size="14" lengthAdjust="spacing" textLength="110.127" x="898.43" y="381.2595">end_date : date</text><line style="stroke:#181818;stroke-width:0.5;" x1="879.43" x2="1094.2669" y1="388.5613" y2="388.5613"/></g><!--class STAFF_ASSIGNMENT--><g class="entity" data-qualified-name="STAFF_ASSIGNMENT" data-source-line="70" id="ent0009"><rect fill="#F1F1F1" height="129.4844" rx="2.5" ry="2.5" style="stroke:#181818;stroke-width:0.5;" width="177.2588" x="666.22" y="267.0769"/><ellipse cx="682.2945" cy="283.0769" fill="#ADD1B2" rx="11" ry="11" style="stroke:#181818;stroke-width:1;"/><path d="M686.4038,289.0769 L678.6851,289.0769 L678.6851,276.6863 L686.4038,276.6863 L686.4038,278.8425 L681.1382,278.8425 L681.1382,281.5144 L685.9038,281.5144 L685.9038,283.6706 L681.1382,283.6706 L681.1382,286.9206 L686.4038,286.9206 L686.4038,289.0769 Z " fill="#000000"/><text fill="#000000" font-family="sans-serif" font-size="14" lengthAdjust="spacing" textLength="142.8711" x="696.5332" y="287.9236">STAFF_ASSIGNMENT</text><line style="stroke:#181818;stroke-width:0.5;" x1="667.22" x2="842.4788" y1="299.0769" y2="299.0769"/><g data-visibility-modifier="IE_MANDATORY"><ellipse cx="677.22" cy="312.7253" fill="#000000" rx="3" ry="3" style="stroke:#000000;stroke-width:1;"/></g><text fill="#000000" font-family="sans-serif" font-size="14" lengthAdjust="spacing" textLength="96.1201" x="686.22" y="316.072">id : uuid &#171;PK&#187;</text><text fill="#000000" font-family="sans-serif" font-size="14" lengthAdjust="spacing" textLength="133.9502" x="686.22" y="332.3689">staff_id : uuid &#171;FK&#187;</text><text fill="#000000" font-family="sans-serif" font-size="14" lengthAdjust="spacing" textLength="151.2588" x="686.22" y="348.6657">shelter_id : uuid &#171;FK&#187;</text><text fill="#000000" font-family="sans-serif" font-size="14" lengthAdjust="spacing" textLength="122.5957" x="686.22" y="364.9626">position : varchar</text><text fill="#000000" font-family="sans-serif" font-size="14" lengthAdjust="spacing" textLength="116.3613" x="686.22" y="381.2595">start_date : date</text><line style="stroke:#181818;stroke-width:0.5;" x1="667.22" x2="842.4788" y1="388.5613" y2="388.5613"/></g><g class="entity" data-qualified-name="GMN20" data-source-line="90" id="ent0021"><path d="M6,304.1169 L6,359.5153 A0,0 0 0 0 6,359.5153 L187.6973,359.5153 A0,0 0 0 0 187.6973,359.5153 L187.6973,335.8169 L222.56,331.8169 L187.6973,327.8169 L187.6973,314.1169 L177.6973,304.1169 L6,304.1169 A0,0 0 0 0 6,304.1169" fill="#FEFFDD" style="stroke:#181818;stroke-width:0.5;"/><path d="M177.6973,304.1169 L177.6973,314.1169 L187.6973,314.1169 L177.6973,304.1169" fill="#FEFFDD" style="stroke:#181818;stroke-width:0.5;"/><text fill="#000000" font-family="sans-serif" font-size="13" lengthAdjust="spacing" textLength="113.75" x="12" y="321.1838">PK = primary key</text><text fill="#000000" font-family="sans-serif" font-size="13" lengthAdjust="spacing" textLength="108.4878" x="12" y="336.3166">FK = foreign key</text><text fill="#000000" font-family="sans-serif" font-size="13" lengthAdjust="spacing" textLength="160.6973" x="12" y="351.4494">Use UUIDs for portability</text></g><!--link SHELTER to PET--><g class="link" data-entity-1="ent0001" data-entity-2="ent0003" data-link-type="crowfoot" data-source-line="78" id="lnk10"><path codeLine="78" d="M587.0318,179.6776 C561.8018,203.4876 551.762,212.9537 525.182,238.0337" fill="none" id="SHELTER-PET" style="stroke:#181818;stroke-width:1;"/><line style="stroke:#181818;stroke-width:1;" x1="587.1955" x2="592.6863" y1="174.0231" y2="179.8414"/><line style="stroke:#181818;stroke-width:1;" x1="585.0137" x2="590.5044" y1="176.0822" y2="181.9004"/><line style="stroke:#181818;stroke-width:1;" x1="587.0318" x2="592.85" y1="179.6776" y2="174.1869"/><line style="stroke:#181818;stroke-width:1;" x1="517.9087" x2="516.2077" y1="244.8966" y2="254.7509"/><line style="stroke:#181818;stroke-width:1;" x1="517.9087" x2="507.9723" y1="244.8966" y2="246.0229"/><line style="stroke:#181818;stroke-width:1;" x1="517.9087" x2="512.09" y1="244.8966" y2="250.3869"/><ellipse cx="522.2726" cy="240.7789" fill="none" rx="4" ry="4" style="stroke:#181818;stroke-width:1;"/><text fill="#000000" font-family="sans-serif" font-size="13" lengthAdjust="spacing" textLength="45.9761" x="558.85" y="216.8438">houses</text></g><!--link PET to SPECIES--><g class="link" data-entity-1="ent0003" data-entity-2="ent0002" data-link-type="crowfoot" data-source-line="79" id="lnk11"><path codeLine="79" d="M520.7556,425.8768 C551.6956,456.5368 567.7869,472.4963 595.9169,500.3663" fill="none" id="PET-SPECIES" style="stroke:#181818;stroke-width:1;"/><line style="stroke:#181818;stroke-width:1;" x1="513.6525" x2="503.7467" y1="418.838" y2="417.4688"/><line style="stroke:#181818;stroke-width:1;" x1="513.6525" x2="512.1933" y1="418.838" y2="408.945"/><line style="stroke:#181818;stroke-width:1;" x1="513.6525" x2="507.97" y1="418.838" y2="413.2069"/><ellipse cx="517.9144" cy="423.0613" fill="none" rx="4" ry="4" style="stroke:#181818;stroke-width:1;"/><line style="stroke:#181818;stroke-width:1;" x1="601.5737" x2="595.9432" y1="500.3401" y2="506.0231"/><line style="stroke:#181818;stroke-width:1;" x1="599.4426" x2="593.8121" y1="498.2286" y2="503.9117"/><line style="stroke:#181818;stroke-width:1;" x1="595.9169" x2="601.6" y1="500.3663" y2="505.9969"/><text fill="#000000" font-family="sans-serif" font-size="13" lengthAdjust="spacing" textLength="29.415" x="549.85" y="455.9238">is_of</text></g><!--link PERSON to ADOPTION_REQUEST--><g class="link" data-entity-1="ent0004" data-entity-2="ent0005" data-link-type="crowfoot" data-source-line="80" id="lnk12"><path codeLine="80" d="M1083.5474,180.8365 C1098.8174,203.4465 1108.06,223.4369 1112.85,250.7769 C1125.29,321.7269 1120.69,341.2469 1112.85,412.8569 C1110.08,438.1269 1108.7943,447.8371 1103.2143,472.0371" fill="none" id="PERSON-ADOPTION_REQUEST" style="stroke:#181818;stroke-width:1;"/><line style="stroke:#181818;stroke-width:1;" x1="1077.9939" x2="1084.6236" y1="179.7604" y2="175.283"/><line style="stroke:#181818;stroke-width:1;" x1="1079.6729" x2="1086.3026" y1="182.2466" y2="177.7691"/><line style="stroke:#181818;stroke-width:1;" x1="1083.5474" x2="1079.07" y1="180.8365" y2="174.2069"/><line style="stroke:#181818;stroke-width:1;" x1="1100.9675" x2="1105.0166" y1="481.7814" y2="490.925"/><line style="stroke:#181818;stroke-width:1;" x1="1100.9675" x2="1093.3234" y1="481.7814" y2="488.2288"/><line style="stroke:#181818;stroke-width:1;" x1="1100.9675" x2="1099.17" y1="481.7814" y2="489.5769"/><ellipse cx="1102.3156" cy="475.9348" fill="none" rx="4" ry="4" style="stroke:#181818;stroke-width:1;"/><text fill="#000000" font-family="sans-serif" font-size="13" lengthAdjust="spacing" textLength="51.4097" x="1120.85" y="336.3838">submits</text></g><!--link PET to ADOPTION_REQUEST--><g class="link" data-entity-1="ent0003" data-entity-2="ent0005" data-link-type="crowfoot" data-source-line="81" id="lnk13"><path codeLine="81" d="M638.4893,409.1925 C644.5193,411.3325 642.96,410.7769 648.85,412.8569 C723.97,439.3669 789.6022,462.1822 862.2622,487.2222" fill="none" id="PET-ADOPTION_REQUEST" style="stroke:#181818;stroke-width:1;"/><line style="stroke:#181818;stroke-width:1;" x1="633.3818" x2="636.0575" y1="411.6243" y2="404.085"/><line style="stroke:#181818;stroke-width:1;" x1="636.2091" x2="638.8847" y1="412.6277" y2="405.0884"/><line style="stroke:#181818;stroke-width:1;" x1="638.4893" x2="630.95" y1="409.1925" y2="406.5169"/><line style="stroke:#181818;stroke-width:1;" x1="871.7165" x2="881.2349" y1="490.4804" y2="487.4143"/><line style="stroke:#181818;stroke-width:1;" x1="871.7165" x2="877.3251" y1="490.4804" y2="498.7595"/><line style="stroke:#181818;stroke-width:1;" x1="871.7165" x2="879.28" y1="490.4804" y2="493.0869"/><ellipse cx="866.0439" cy="488.5255" fill="none" rx="4" ry="4" style="stroke:#181818;stroke-width:1;"/><text fill="#000000" font-family="sans-serif" font-size="13" lengthAdjust="spacing" textLength="90.3271" x="779.85" y="455.9238">requested_for</text></g><!--link PET to MEDICAL_RECORD--><g class="link" data-entity-1="ent0003" data-entity-2="ent0006" data-link-type="crowfoot" data-source-line="82" id="lnk14"><path codeLine="82" d="M345.5105,419.0263 C322.0505,443.8963 314.203,452.2048 291.303,476.4748" fill="none" id="PET-MEDICAL_RECORD" style="stroke:#181818;stroke-width:1;"/><line style="stroke:#181818;stroke-width:1;" x1="345.3456" x2="351.165" y1="413.3718" y2="418.8613"/><line style="stroke:#181818;stroke-width:1;" x1="343.287" x2="349.1064" y1="415.5541" y2="421.0436"/><line style="stroke:#181818;stroke-width:1;" x1="345.5105" x2="351" y1="419.0263" y2="413.2069"/><line style="stroke:#181818;stroke-width:1;" x1="284.4402" x2="283.314" y1="483.7482" y2="493.6846"/><line style="stroke:#181818;stroke-width:1;" x1="284.4402" x2="274.586" y1="483.7482" y2="485.4492"/><line style="stroke:#181818;stroke-width:1;" x1="284.4402" x2="278.95" y1="483.7482" y2="489.5669"/><ellipse cx="288.5579" cy="479.3842" fill="none" rx="4" ry="4" style="stroke:#181818;stroke-width:1;"/><text fill="#000000" font-family="sans-serif" font-size="13" lengthAdjust="spacing" textLength="22.9785" x="319.85" y="455.9238">has</text></g><!--link PET to PHOTO--><g class="link" data-entity-1="ent0003" data-entity-2="ent0007" data-link-type="crowfoot" data-source-line="83" id="lnk15"><path codeLine="83" d="M426.85,421.2069 C426.85,448.9069 426.85,453.5369 426.85,479.7469" fill="none" id="PET-PHOTO" style="stroke:#181818;stroke-width:1;"/><line style="stroke:#181818;stroke-width:1;" x1="422.85" x2="430.85" y1="417.2069" y2="417.2069"/><line style="stroke:#181818;stroke-width:1;" x1="422.85" x2="430.85" y1="420.2069" y2="420.2069"/><line style="stroke:#181818;stroke-width:1;" x1="426.85" x2="426.85" y1="421.2069" y2="413.2069"/><line style="stroke:#181818;stroke-width:1;" x1="426.85" x2="432.85" y1="489.7469" y2="497.7469"/><line style="stroke:#181818;stroke-width:1;" x1="426.85" x2="420.85" y1="489.7469" y2="497.7469"/><line style="stroke:#181818;stroke-width:1;" x1="426.85" x2="426.85" y1="489.7469" y2="497.7469"/><ellipse cx="426.85" cy="483.7469" fill="none" rx="4" ry="4" style="stroke:#181818;stroke-width:1;"/><text fill="#000000" font-family="sans-serif" font-size="13" lengthAdjust="spacing" textLength="22.9785" x="427.85" y="455.9238">has</text></g><!--link PERSON to VOLUNTEER_ASSIGNMENT--><g class="link" data-entity-1="ent0004" data-entity-2="ent0008" data-link-type="crowfoot" data-source-line="84" id="lnk16"><path codeLine="84" d="M1011.7769,182.0767 C1006.8869,211.2367 1005.414,220.0043 1000.534,249.1343" fill="none" id="PERSON-VOLUNTEER_ASSIGNMENT" style="stroke:#181818;stroke-width:1;"/><line style="stroke:#181818;stroke-width:1;" x1="1008.4935" x2="1016.3834" y1="177.4702" y2="178.7933"/><line style="stroke:#181818;stroke-width:1;" x1="1007.9974" x2="1015.8872" y1="180.4289" y2="181.752"/><line style="stroke:#181818;stroke-width:1;" x1="1011.7769" x2="1013.1" y1="182.0767" y2="174.1869"/><line style="stroke:#181818;stroke-width:1;" x1="998.8818" x2="1003.4775" y1="258.9968" y2="267.8782"/><line style="stroke:#181818;stroke-width:1;" x1="998.8818" x2="991.6425" y1="258.9968" y2="265.8955"/><line style="stroke:#181818;stroke-width:1;" x1="998.8818" x2="997.56" y1="258.9968" y2="266.8869"/><ellipse cx="999.8731" cy="253.0793" fill="none" rx="4" ry="4" style="stroke:#181818;stroke-width:1;"/><text fill="#000000" font-family="sans-serif" font-size="13" lengthAdjust="spacing" textLength="79.1045" x="1007.85" y="216.8438">assigned_as</text></g><!--link SHELTER to VOLUNTEER_ASSIGNMENT--><g class="link" data-entity-1="ent0001" data-entity-2="ent0008" data-link-type="crowfoot" data-source-line="85" id="lnk17"><path codeLine="85" d="M727.0959,179.6266 C745.1259,196.3466 759.85,207.8469 780.85,220.7769 C813.18,240.6869 826.86,233.8369 860.85,250.7769 C870.59,255.6369 864.9429,252.0445 874.7429,257.7045" fill="none" id="SHELTER-VOLUNTEER_ASSIGNMENT" style="stroke:#181818;stroke-width:1;"/><line style="stroke:#181818;stroke-width:1;" x1="721.4431" x2="726.8828" y1="179.8397" y2="173.9738"/><line style="stroke:#181818;stroke-width:1;" x1="723.6428" x2="729.0826" y1="181.8796" y2="176.0137"/><line style="stroke:#181818;stroke-width:1;" x1="727.0959" x2="721.23" y1="179.6266" y2="174.1869"/><line style="stroke:#181818;stroke-width:1;" x1="883.4024" x2="893.3308" y1="262.7058" y2="261.5112"/><line style="stroke:#181818;stroke-width:1;" x1="883.4024" x2="887.3292" y1="262.7058" y2="271.9026"/><line style="stroke:#181818;stroke-width:1;" x1="883.4024" x2="890.33" y1="262.7058" y2="266.7069"/><ellipse cx="878.2067" cy="259.705" fill="none" rx="4" ry="4" style="stroke:#181818;stroke-width:1;"/><text fill="#000000" font-family="sans-serif" font-size="13" lengthAdjust="spacing" textLength="98.4268" x="781.85" y="216.8438">has_volunteers</text></g><!--link PERSON to STAFF_ASSIGNMENT--><g class="link" data-entity-1="ent0004" data-entity-2="ent0009" data-link-type="crowfoot" data-source-line="86" id="lnk18"><path codeLine="86" d="M939.4967,179.263 C903.9767,208.423 882.1534,226.3368 846.6634,255.4668" fill="none" id="PERSON-STAFF_ASSIGNMENT" style="stroke:#181818;stroke-width:1;"/><line style="stroke:#181818;stroke-width:1;" x1="940.0503" x2="945.1264" y1="173.6333" y2="179.8166"/><line style="stroke:#181818;stroke-width:1;" x1="937.7316" x2="942.8077" y1="175.5369" y2="181.7201"/><line style="stroke:#181818;stroke-width:1;" x1="939.4967" x2="945.68" y1="179.263" y2="174.1869"/><line style="stroke:#181818;stroke-width:1;" x1="838.9337" x2="836.5567" y1="261.8113" y2="271.5247"/><line style="stroke:#181818;stroke-width:1;" x1="838.9337" x2="828.9433" y1="261.8113" y2="262.2491"/><line style="stroke:#181818;stroke-width:1;" x1="838.9337" x2="832.75" y1="261.8113" y2="266.8869"/><ellipse cx="843.5715" cy="258.0046" fill="none" rx="4" ry="4" style="stroke:#181818;stroke-width:1;"/><text fill="#000000" font-family="sans-serif" font-size="13" lengthAdjust="spacing" textLength="85.6616" x="905.85" y="216.8438">employed_as</text></g><!--link SHELTER to STAFF_ASSIGNMENT--><g class="link" data-entity-1="ent0001" data-entity-2="ent0009" data-link-type="crowfoot" data-source-line="87" id="lnk19"><path codeLine="87" d="M650.7276,182.1061 C650.5076,197.7661 652.34,206.2069 657.85,220.7769 C664.06,237.2169 662.7402,238.7195 673.9002,252.6995" fill="none" id="SHELTER-STAFF_ASSIGNMENT" style="stroke:#181818;stroke-width:1;"/><line style="stroke:#181818;stroke-width:1;" x1="646.7842" x2="654.7834" y1="178.0503" y2="178.1627"/><line style="stroke:#181818;stroke-width:1;" x1="646.7421" x2="654.7413" y1="181.05" y2="181.1624"/><line style="stroke:#181818;stroke-width:1;" x1="650.7276" x2="650.84" y1="182.1061" y2="174.1069"/><line style="stroke:#181818;stroke-width:1;" x1="680.139" x2="689.8191" y1="260.5147" y2="263.0236"/><line style="stroke:#181818;stroke-width:1;" x1="680.139" x2="680.4409" y1="260.5147" y2="270.5101"/><line style="stroke:#181818;stroke-width:1;" x1="680.139" x2="685.13" y1="260.5147" y2="266.7669"/><ellipse cx="676.3957" cy="255.8256" fill="none" rx="4" ry="4" style="stroke:#181818;stroke-width:1;"/><text fill="#000000" font-family="sans-serif" font-size="13" lengthAdjust="spacing" textLength="54.9453" x="658.85" y="216.8438">employs</text></g><?plantuml-src bLNRZjem47rEliBF5Vm0sgw487JHxXBAfQ_HO4_0RMAdjeCM0V_UCTT0YBhx57FicJbdvjWuwJ9aqOJrmS42B8OXAYVTXarVehSPRMp3u1kJWdLOMTBdwMdy-lmS1Wfo96mDXg_0X048OT3QAiIrSi1TWZd8hBfHhBIg1k-lHSTHRnXDcufodUTQ9VUrBPS-FfMyjhKmYE9XgN4q-wosXJHkbGXm7lKVAeaVj4PLvcpxtcA35fll2NNWIdlPW3K9XqM6BGP25mv5YwNQEZH-LQ0IKYrzs0ep0fCgay61YIsGjDdwJbN7P1gFcgIaPPRLclBVWGH6PtYLKHIPvA1SYwrrLYg7Q5gCjARflaAasu_7is4yIYRHptaqRUokmRybsiTw2tGFq7E4IC2T9k1aZhL-2mCfaRJb8fVkq6sYRlJQhmp-HauOjJiddyBIwtFuuIeAtgF-iDTz8m6zUD9luj_4aMiZRaqYq78Z2oUrEXSBri2vLBJjComqzHaKePJpRagL2R_4i_XhR4fpCryEPn8Ng2mo3QBMqclLN_7RV3IBeadIdKw7FqRlqQXnf1TRFB9mixaT67VRCReIDq3bPPXr1uDFK3dOyaiq2ctbVNVgr8Z9-KNSxTfjlJqy81ssqgL56_eVUzrkxtQNDwp3f4rq6fukw2cgTaiw9xyUSpIVkbw2L9lgsJlN4YMuoNMqpnckSdauuWu3Q-LIUMlOUyqD4PGwkNZWlafjSdHTStBVvc65njCs39McUMIOEgPJt_um6B-oxwmmCWUpONzm4mO3Zr27a2GSaRb5DfyF-zR3hD26_kXaHfuYQmdcS_u3?></g></svg>